<svg width="2048" height="1536" viewBox="0 0 2048 1536" fill="none" xmlns="http://www.w3.org/2000/svg">
<g clip-path="url(#clip0_32_2)">
<rect width="2048" height="1536" fill="#E0CB55"/>
<path d="M1869.43 733.08L1869.27 734.98L1871.16 735.233L3012.91 887.89L1814.25 1304.97L1813.03 1305.4L1812.92 1306.69L1703.25 2624.08L1155.25 1533.56L1154.45 1531.96L1152.78 1532.58L224.994 1872.78L937.438 1092.36L938.389 1091.31L937.727 1090.07L656.614 561.396L1326.01 655.41L1327.04 655.556L1327.75 654.792L1931.5 5.60938L1869.43 733.08ZM1697.26 459.834L1394.11 790.224L1034.64 746.006L1030.48 745.494L1032.69 749.048L1195.78 1010.84L863.109 1379.34L865.283 1382.56L1322.52 1214.62L1559.94 1612.3L1562.99 1617.4L1563.65 1611.5L1620.15 1107.19L2125.38 918.374L2132.58 915.684L2124.98 914.523L1662.15 843.858L1700.72 461.387L1701.33 455.401L1697.26 459.834Z" stroke="url(#paint0_linear_32_2)" stroke-width="4"/>
</g>
<defs>
<linearGradient id="paint0_linear_32_2" x1="2534" y1="190.5" x2="582.5" y2="1274.5" gradientUnits="userSpaceOnUse">
<stop stop-color="#E9E5E0"/>
<stop offset="1" stop-color="#E0CB55"/>
</linearGradient>
<clipPath id="clip0_32_2">
<rect width="2048" height="1536" fill="white"/>
</clipPath>
</defs>
</svg>
